<?xml version="1.0" encoding="UTF-8" standalone="no"?>
<!-- Created with Inkscape (http://www.inkscape.org/) -->

<svg
   xmlns:dc="http://purl.org/dc/elements/1.1/"
   xmlns:cc="http://creativecommons.org/ns#"
   xmlns:rdf="http://www.w3.org/1999/02/22-rdf-syntax-ns#"
   xmlns:svg="http://www.w3.org/2000/svg"
   xmlns="http://www.w3.org/2000/svg"
   version="1.1"
   width="24"
   height="24"
   viewBox="0 0 24 24"
   id="svg4561"
   xml:space="preserve"><metadata
     id="metadata11"><rdf:RDF><cc:Work
         rdf:about=""><dc:format>image/svg+xml</dc:format><dc:type
           rdf:resource="http://purl.org/dc/dcmitype/StillImage" /><dc:title></dc:title></cc:Work></rdf:RDF></metadata><defs
     id="defs9"><filter
       color-interpolation-filters="sRGB"
       id="filter3764"><feGaussianBlur
         stdDeviation="4.32"
         id="feGaussianBlur3766" /></filter></defs><path
     d="m 14,3 -4.5,4.5 0,1 L 14,4 z"
     id="path2997"
     style="opacity:0.3;fill:#ffffff;fill-opacity:1;stroke:none" /><path
     d="m 14,6 0,1 3,0 0,-1 z"
     id="path2995"
     style="opacity:0.3;fill:#ffffff;fill-opacity:1;stroke:none" /><path
     d="m 9.5,10.5 0,1 5,5.5 0,-1 z"
     id="path2993"
     style="opacity:0.3;fill:#ffffff;fill-opacity:1;stroke:none" /><path
     d="m 7,14.5 0,1 2.5,0 0,-1 z"
     id="path2991"
     style="opacity:0.3;fill:#ffffff;fill-opacity:1;stroke:none" /><path
     d="m 15,16.5 -6,6 0,1 6,-6 2.5,0 0,-1 z"
     id="path2989"
     style="opacity:0.3;fill:#ffffff;fill-opacity:1;stroke:none" /><path
     d="m 6.5,18 0,1 2.5,0 0,-1 z"
     id="path3756-0"
     style="opacity:0.3;fill:#ffffff;fill-opacity:1;stroke:none" /><g
     transform="matrix(0.090661,0,0,0.090661,0.39539204,17.282002)"
     id="layer1"><path
       d="m 161.0903,6.8928205 -66.180604,66.1806065 -27.575253,0 0,126.846163 27.575253,0 0,49.63546 66.180604,-66.18061 27.57526,0 0,-126.846164 -27.57526,0 z m -11.0301,27.5752525 0,33.090304 33.09031,0 0,27.575253 -27.57526,0 0,44.1204 -55.1505,-55.150501 z m -49.63545,82.725757 55.1505,60.66556 -49.63545,49.63545 0,-38.60535 -32.34605,0.29801 -0.744256,-27.87326 27.575256,0 z"
       transform="translate(0,-192)"
       id="path3756"
       style="fill:#3c3c3c;fill-opacity:1;stroke:none" /></g></svg>