<svg xmlns="http://www.w3.org/2000/svg" viewBox="0 0 67.733 67.733" height="256" width="256"><path d="M27.517 64.03l-4.234-2.118V47.096l4.234 2.116zM46.567 17.992l-4.234-2.117-6.35.53 4.234 2.116z" fill="#323232" stroke="#323232" stroke-width=".1" stroke-linejoin="round"/><path d="M40.217 3.704l-12.7 17.992-6.35.529v27.517l6.35-.53V64.03l12.7-17.992 6.35-.529V17.992l-6.35.529z" fill="#070707" stroke="#070707" stroke-width=".10001123999999999" stroke-linejoin="round"/><path d="M44.45 24.342l-6.35.529v8.996l-8.467-10.055-6.35.53v19.05l6.35-.53v-8.995L38.1 43.92l6.35-.53z" fill="#fff"/><path d="M35.983 1.587l-12.7 17.992-6.35.53v27.516l4.234 2.117V22.225l6.35-.53 12.7-17.99-4.234-2.118z" fill="#323232" stroke="#323232" stroke-width=".10001123999999999" stroke-linejoin="round"/></svg>
