<?xml version="1.0" encoding="UTF-8" standalone="no"?>
<!-- Created with Inkscape (http://www.inkscape.org/) -->

<svg
   xmlns:dc="http://purl.org/dc/elements/1.1/"
   xmlns:cc="http://creativecommons.org/ns#"
   xmlns:rdf="http://www.w3.org/1999/02/22-rdf-syntax-ns#"
   xmlns:svg="http://www.w3.org/2000/svg"
   xmlns="http://www.w3.org/2000/svg"
   version="1.1"
   width="256"
   height="256"
   viewBox="0 0 256 256"
   id="svg4561"
   xml:space="preserve"><metadata
     id="metadata11"><rdf:RDF><cc:Work
         rdf:about=""><dc:format>image/svg+xml</dc:format><dc:type
           rdf:resource="http://purl.org/dc/dcmitype/StillImage" /><dc:title></dc:title></cc:Work></rdf:RDF></metadata><defs
     id="defs9"><filter
       color-interpolation-filters="sRGB"
       id="filter3764"><feGaussianBlur
         stdDeviation="4.32"
         id="feGaussianBlur3766" /></filter></defs><g
     transform="translate(0,192)"
     id="layer1"><path
       d="m 162,5.59375 -68,68 -27.1875,0 0,122.40625 27.1875,0 0,54.40625 68,-68 27.1875,0 L 189.1875,60 162,60 162,5.59375 z M 155.1875,26 l 0,40.8125 27.21875,0 0,28.875 -25.65625,-0.125 -0.40625,44.34375 -57.3125,-57.75 L 155.1875,26 z m -55.34375,91.6875 55.875,57.375 L 100.8125,230 l 0,-40.8125 -27.21875,0 0,-28.875 25.9375,0.53125 0.21875,0.0937 0.09375,-43.25 z"
       transform="translate(0,-192)"
       id="path3756"
       style="fill:#dcd8d0;fill-opacity:1;stroke:none" /></g></svg>