<?xml version="1.0" encoding="UTF-8" standalone="no"?>
<!-- Created with Inkscape (http://www.inkscape.org/) -->
<svg id="svg4561" xmlns:rdf="http://www.w3.org/1999/02/22-rdf-syntax-ns#" xmlns="http://www.w3.org/2000/svg" xml:space="preserve" height="24" width="24" version="1.1" xmlns:cc="http://creativecommons.org/ns#" viewBox="0 0 24 24" xmlns:dc="http://purl.org/dc/elements/1.1/"><metadata id="metadata11"><rdf:RDF><cc:Work rdf:about=""><dc:format>image/svg+xml</dc:format><dc:type rdf:resource="http://purl.org/dc/dcmitype/StillImage"/><dc:title/></cc:Work></rdf:RDF></metadata><path id="path2997" opacity=".3" d="m14 3-4.5 4.5v1l4.5-4.5z"/><path id="path2995" opacity=".3" d="m14 6v1h3v-1z"/><path id="path2993" opacity=".3" d="m9.5 10.5v1l5 5.5v-1z"/><path id="path2991" opacity=".3" d="m7 14.5v1h2.5v-1z"/><path id="path2989" opacity=".3" d="m15 16.5-6 6v1l6-6h2.5v-1z"/><path id="path3756-0" opacity=".3" d="m6.5 18v1h2.5v-1z"/><g id="layer1" transform="matrix(.090661 0 0 .090661 .39539 17.282)"><path id="path3756" d="m161.09 6.8928-66.181 66.181h-27.575v126.85h27.575v49.635l66.181-66.181h27.575v-126.85h-27.575zm-11.03 27.575v33.09h33.09v27.575h-27.575v44.12l-55.15-55.151zm-49.635 82.726 55.15 60.666-49.635 49.635v-38.605l-32.346 0.29801-0.74426-27.873h27.575z" transform="translate(0,-192)" fill="#dcd8d0"/></g></svg>
